# xmcd CD database file
#
# Track frame offsets:
#	150
#	17732
#	37689
#	52321
#	72727
#	115934
#	136566
#	152173
#	169280
#	192462
#
# Disc length: 2823 seconds
#
# Revision: 0
# Processed by: cddbd v1.5.2PL0 Copyright (c) Steve Scherf et al.
# Submitted via: CDex 1.51
#
DISCID=8b0b050a
DTITLE=Riverside Jazz Messengers - Back To The Roots
DYEAR=2003
DGENRE=Jazz
TTITLE0=Down By The Riverside
TTITLE1=C - Jam Blues
TTITLE2=Watermelon Man
TTITLE3=When You`re Smiling
TTITLE4=Fly Me To The Moon
TTITLE5=Just A Little While To Stay Here
TTITLE6=Jambalaya
TTITLE7=All Of Me
TTITLE8=Mood Indigo
TTITLE9=Bei Mir Biste Scheen
EXTD=YEAR: 2003
EXTT0=
EXTT1=
EXTT2=
EXTT3=
EXTT4=
EXTT5=
EXTT6=
EXTT7=
EXTT8=
EXTT9=
PLAYORDER=
